<mxfile host="Electron" modified="2024-05-18T09:24:39.141Z" agent="Mozilla/5.0 (Windows NT 10.0; Win64; x64) AppleWebKit/537.36 (KHTML, like Gecko) draw.io/24.4.0 Chrome/120.0.6099.109 Electron/28.1.0 Safari/537.36" etag="P63vMLbTNd-qqYKZj19b" version="24.4.0" type="device">
  <diagram name="UseCase_Diagramm" id="CjE1xBCVi3CWcHzls2Fd">
    <mxGraphModel dx="2390" dy="3745" grid="1" gridSize="10" guides="1" tooltips="1" connect="1" arrows="1" fold="1" page="1" pageScale="1" pageWidth="827" pageHeight="1169" math="0" shadow="0">
      <root>
        <mxCell id="0" />
        <mxCell id="1" parent="0" />
        <mxCell id="vXkP8HubEGrQsw0expys-2" value="UML - Use Case Diagramm" style="text;html=1;align=center;verticalAlign=middle;whiteSpace=wrap;rounded=0;fontStyle=1;fontSize=30;" vertex="1" parent="1">
          <mxGeometry x="200" y="-2280" width="1100" height="70" as="geometry" />
        </mxCell>
        <mxCell id="Red1ORgHXicUbS49_O6O-2" value="" style="html=1;whiteSpace=wrap;" parent="1" vertex="1">
          <mxGeometry x="360" y="-2200" width="800" height="700" as="geometry" />
        </mxCell>
        <mxCell id="Red1ORgHXicUbS49_O6O-3" value="Dojo Schule" style="text;strokeColor=none;fillColor=none;html=1;fontSize=24;fontStyle=1;verticalAlign=middle;align=center;" parent="1" vertex="1">
          <mxGeometry x="370.7142857142857" y="-2185.277777777778" width="182.14285714285714" height="58.88888888888889" as="geometry" />
        </mxCell>
        <mxCell id="Red1ORgHXicUbS49_O6O-10" value="Use Case 3 -&lt;br&gt;Schüler verwalten" style="ellipse;whiteSpace=wrap;html=1;rotation=0;" parent="1" vertex="1">
          <mxGeometry x="600" y="-1990" width="180" height="105" as="geometry" />
        </mxCell>
        <mxCell id="Red1ORgHXicUbS49_O6O-1" value="Dojo Schüler" style="shape=umlActor;verticalLabelPosition=bottom;verticalAlign=top;html=1;" parent="1" vertex="1">
          <mxGeometry x="280" y="-1938.47" width="30" height="60" as="geometry" />
        </mxCell>
        <mxCell id="Red1ORgHXicUbS49_O6O-16" value="" style="edgeStyle=orthogonalEdgeStyle;rounded=0;orthogonalLoop=1;jettySize=auto;html=1;endArrow=none;endFill=0;exitX=0.5;exitY=0;exitDx=0;exitDy=0;exitPerimeter=0;" parent="1" source="Red1ORgHXicUbS49_O6O-1" target="Red1ORgHXicUbS49_O6O-10" edge="1">
          <mxGeometry relative="1" as="geometry">
            <Array as="points">
              <mxPoint x="300" y="-1939" />
              <mxPoint x="300" y="-1937" />
            </Array>
          </mxGeometry>
        </mxCell>
        <mxCell id="Red1ORgHXicUbS49_O6O-20" value="Use Case 2 -&lt;br&gt;Sensei/Schiedsrichter verwalten" style="ellipse;whiteSpace=wrap;html=1;rotation=0;" parent="1" vertex="1">
          <mxGeometry x="420" y="-2100" width="180" height="105" as="geometry" />
        </mxCell>
        <mxCell id="Red1ORgHXicUbS49_O6O-25" value="" style="edgeStyle=orthogonalEdgeStyle;rounded=0;orthogonalLoop=1;jettySize=auto;html=1;endArrow=none;endFill=0;exitX=1;exitY=0.3333333333333333;exitDx=0;exitDy=0;exitPerimeter=0;" parent="1" source="Red1ORgHXicUbS49_O6O-21" target="Red1ORgHXicUbS49_O6O-20" edge="1">
          <mxGeometry relative="1" as="geometry">
            <Array as="points">
              <mxPoint x="370" y="-2058" />
              <mxPoint x="370" y="-2058" />
            </Array>
          </mxGeometry>
        </mxCell>
        <mxCell id="Red1ORgHXicUbS49_O6O-21" value="Schiedsrichter" style="shape=umlActor;verticalLabelPosition=bottom;verticalAlign=top;html=1;" parent="1" vertex="1">
          <mxGeometry x="280" y="-2078.4700000000003" width="30" height="60" as="geometry" />
        </mxCell>
        <mxCell id="Red1ORgHXicUbS49_O6O-28" value="Use Case 1 -&lt;br&gt;Verwaltung von Stammdaten&lt;br&gt;(Standort, Gürtelfarbe)" style="ellipse;whiteSpace=wrap;html=1;rotation=0;" parent="1" vertex="1">
          <mxGeometry x="840" y="-2170" width="180" height="105" as="geometry" />
        </mxCell>
        <mxCell id="Red1ORgHXicUbS49_O6O-41" value="Use Case 4 -&lt;br&gt;Organisation/Abhalten &lt;br&gt;von Kurs" style="ellipse;whiteSpace=wrap;html=1;rotation=0;" parent="1" vertex="1">
          <mxGeometry x="600" y="-1800" width="180" height="105" as="geometry" />
        </mxCell>
        <mxCell id="Red1ORgHXicUbS49_O6O-49" value="&amp;lt;&amp;lt;include&amp;gt;&amp;gt;" style="endArrow=open;endSize=12;dashed=1;html=1;rounded=0;" parent="1" source="Red1ORgHXicUbS49_O6O-41" target="Red1ORgHXicUbS49_O6O-10" edge="1">
          <mxGeometry x="-0.3738" y="17" width="160" relative="1" as="geometry">
            <mxPoint x="750" y="-1780" as="sourcePoint" />
            <mxPoint x="910" y="-1780" as="targetPoint" />
            <Array as="points" />
            <mxPoint as="offset" />
          </mxGeometry>
        </mxCell>
        <mxCell id="Red1ORgHXicUbS49_O6O-52" value="&amp;lt;&amp;lt;include&amp;gt;&amp;gt;" style="endArrow=open;endSize=12;dashed=1;html=1;rounded=0;" parent="1" source="Red1ORgHXicUbS49_O6O-41" target="Red1ORgHXicUbS49_O6O-28" edge="1">
          <mxGeometry x="0.3315" y="23" width="160" relative="1" as="geometry">
            <mxPoint x="750" y="-1780" as="sourcePoint" />
            <mxPoint x="910" y="-1780" as="targetPoint" />
            <mxPoint as="offset" />
          </mxGeometry>
        </mxCell>
        <mxCell id="Red1ORgHXicUbS49_O6O-53" value="&amp;lt;&amp;lt;include&amp;gt;&amp;gt;" style="endArrow=open;endSize=12;dashed=1;html=1;rounded=0;exitX=0;exitY=0;exitDx=0;exitDy=0;entryX=0.5;entryY=1;entryDx=0;entryDy=0;" parent="1" source="Red1ORgHXicUbS49_O6O-41" target="Red1ORgHXicUbS49_O6O-20" edge="1">
          <mxGeometry x="-0.2513" y="22" width="160" relative="1" as="geometry">
            <mxPoint x="659.9965320857822" y="-1689.9996109960243" as="sourcePoint" />
            <mxPoint x="662.7674195139583" y="-1995.0006636191872" as="targetPoint" />
            <Array as="points" />
            <mxPoint x="1" as="offset" />
          </mxGeometry>
        </mxCell>
        <mxCell id="Red1ORgHXicUbS49_O6O-45" style="edgeStyle=orthogonalEdgeStyle;rounded=0;orthogonalLoop=1;jettySize=auto;html=1;endArrow=none;endFill=0;entryX=0;entryY=0.5;entryDx=0;entryDy=0;exitX=1;exitY=1;exitDx=0;exitDy=0;exitPerimeter=0;" parent="1" source="Red1ORgHXicUbS49_O6O-1" target="Red1ORgHXicUbS49_O6O-41" edge="1">
          <mxGeometry relative="1" as="geometry">
            <mxPoint x="295" y="-1938.47" as="sourcePoint" />
            <mxPoint x="690" y="-1755" as="targetPoint" />
            <Array as="points">
              <mxPoint x="310" y="-1750" />
              <mxPoint x="600" y="-1750" />
            </Array>
          </mxGeometry>
        </mxCell>
        <mxCell id="Red1ORgHXicUbS49_O6O-48" value="" style="group" parent="1" vertex="1" connectable="0">
          <mxGeometry x="295" y="-1770" width="185" height="30" as="geometry" />
        </mxCell>
        <mxCell id="Red1ORgHXicUbS49_O6O-46" value="x Dojo Schüler" style="text;html=1;align=center;verticalAlign=middle;whiteSpace=wrap;rounded=0;" parent="Red1ORgHXicUbS49_O6O-48" vertex="1">
          <mxGeometry x="75.71000000000001" width="109.29" height="30" as="geometry" />
        </mxCell>
        <mxCell id="Red1ORgHXicUbS49_O6O-55" value="" style="endArrow=open;endFill=1;endSize=12;html=1;rounded=0;exitX=1;exitY=1;exitDx=0;exitDy=0;" parent="1" source="Red1ORgHXicUbS49_O6O-20" target="Red1ORgHXicUbS49_O6O-10" edge="1">
          <mxGeometry width="160" relative="1" as="geometry">
            <mxPoint x="580" y="-2030" as="sourcePoint" />
            <mxPoint x="740" y="-2030" as="targetPoint" />
          </mxGeometry>
        </mxCell>
        <mxCell id="Red1ORgHXicUbS49_O6O-56" value="&amp;lt;&amp;lt;extends&amp;gt;&amp;gt;" style="edgeLabel;html=1;align=center;verticalAlign=middle;resizable=0;points=[];" parent="Red1ORgHXicUbS49_O6O-55" vertex="1" connectable="0">
          <mxGeometry x="-0.1268" y="10" relative="1" as="geometry">
            <mxPoint as="offset" />
          </mxGeometry>
        </mxCell>
        <mxCell id="Red1ORgHXicUbS49_O6O-60" value="Use Case 5 -&lt;br&gt;Organisation/Abhalten &lt;br&gt;von Wettkampf" style="ellipse;whiteSpace=wrap;html=1;rotation=0;" parent="1" vertex="1">
          <mxGeometry x="610" y="-1660" width="180" height="105" as="geometry" />
        </mxCell>
        <mxCell id="Red1ORgHXicUbS49_O6O-61" style="edgeStyle=orthogonalEdgeStyle;rounded=0;orthogonalLoop=1;jettySize=auto;html=1;endArrow=none;endFill=0;entryX=0.004;entryY=0.635;entryDx=0;entryDy=0;exitX=0;exitY=1;exitDx=0;exitDy=0;exitPerimeter=0;entryPerimeter=0;" parent="1" source="Red1ORgHXicUbS49_O6O-1" target="Red1ORgHXicUbS49_O6O-60" edge="1">
          <mxGeometry relative="1" as="geometry">
            <mxPoint x="280" y="-1721" as="sourcePoint" />
            <mxPoint x="600" y="-1590" as="targetPoint" />
            <Array as="points">
              <mxPoint x="260" y="-1879" />
              <mxPoint x="260" y="-1593" />
              <mxPoint x="601" y="-1593" />
            </Array>
          </mxGeometry>
        </mxCell>
        <mxCell id="Red1ORgHXicUbS49_O6O-62" value="x Dojo Schüler" style="text;html=1;align=center;verticalAlign=middle;whiteSpace=wrap;rounded=0;" parent="1" vertex="1">
          <mxGeometry x="370.71000000000004" y="-1617.5" width="109.29" height="30" as="geometry" />
        </mxCell>
        <mxCell id="Red1ORgHXicUbS49_O6O-66" value="&amp;lt;&amp;lt;include&amp;gt;&amp;gt;" style="endArrow=open;endSize=12;dashed=1;html=1;rounded=0;exitX=0;exitY=0.5;exitDx=0;exitDy=0;entryX=0;entryY=1;entryDx=0;entryDy=0;" parent="1" source="Red1ORgHXicUbS49_O6O-60" target="Red1ORgHXicUbS49_O6O-20" edge="1">
          <mxGeometry x="-0.3261" y="20" width="160" relative="1" as="geometry">
            <mxPoint x="636" y="-1774" as="sourcePoint" />
            <mxPoint x="520" y="-1985" as="targetPoint" />
            <Array as="points" />
            <mxPoint as="offset" />
          </mxGeometry>
        </mxCell>
        <mxCell id="Red1ORgHXicUbS49_O6O-65" value="&amp;lt;&amp;lt;include&amp;gt;&amp;gt;" style="endArrow=open;endSize=12;dashed=1;html=1;rounded=0;exitX=1;exitY=0;exitDx=0;exitDy=0;entryX=0.5;entryY=1;entryDx=0;entryDy=0;" parent="1" source="Red1ORgHXicUbS49_O6O-60" target="Red1ORgHXicUbS49_O6O-28" edge="1">
          <mxGeometry x="-0.0705" y="-20" width="160" relative="1" as="geometry">
            <mxPoint x="732" y="-1787" as="sourcePoint" />
            <mxPoint x="908" y="-2058" as="targetPoint" />
            <mxPoint as="offset" />
          </mxGeometry>
        </mxCell>
        <mxCell id="Red1ORgHXicUbS49_O6O-22" value="Sensei" style="shape=umlActor;verticalLabelPosition=bottom;verticalAlign=top;html=1;" parent="1" vertex="1">
          <mxGeometry x="1220" y="-2077.5" width="30" height="60" as="geometry" />
        </mxCell>
        <mxCell id="Red1ORgHXicUbS49_O6O-24" value="" style="edgeStyle=orthogonalEdgeStyle;rounded=0;orthogonalLoop=1;jettySize=auto;html=1;entryX=1;entryY=0.5;entryDx=0;entryDy=0;endArrow=none;endFill=0;exitX=0;exitY=0.3333333333333333;exitDx=0;exitDy=0;exitPerimeter=0;" parent="1" source="Red1ORgHXicUbS49_O6O-22" target="Red1ORgHXicUbS49_O6O-20" edge="1">
          <mxGeometry relative="1" as="geometry">
            <Array as="points">
              <mxPoint x="1220" y="-2047" />
            </Array>
          </mxGeometry>
        </mxCell>
        <mxCell id="Red1ORgHXicUbS49_O6O-19" value="" style="edgeStyle=orthogonalEdgeStyle;rounded=0;orthogonalLoop=1;jettySize=auto;html=1;endArrow=none;endFill=0;exitX=0.276;exitY=0.895;exitDx=0;exitDy=0;exitPerimeter=0;" parent="1" source="Red1ORgHXicUbS49_O6O-22" target="Red1ORgHXicUbS49_O6O-10" edge="1">
          <mxGeometry relative="1" as="geometry">
            <mxPoint x="990" y="-1908.5294117647059" as="sourcePoint" />
            <Array as="points">
              <mxPoint x="1228" y="-1908" />
            </Array>
          </mxGeometry>
        </mxCell>
        <mxCell id="Red1ORgHXicUbS49_O6O-44" style="edgeStyle=orthogonalEdgeStyle;rounded=0;orthogonalLoop=1;jettySize=auto;html=1;endArrow=none;endFill=0;exitX=1;exitY=1;exitDx=0;exitDy=0;exitPerimeter=0;" parent="1" source="Red1ORgHXicUbS49_O6O-22" target="Red1ORgHXicUbS49_O6O-41" edge="1">
          <mxGeometry relative="1" as="geometry">
            <mxPoint x="1330" y="-1950" as="sourcePoint" />
            <Array as="points">
              <mxPoint x="1270" y="-2017" />
              <mxPoint x="1270" y="-1747" />
            </Array>
          </mxGeometry>
        </mxCell>
        <mxCell id="Red1ORgHXicUbS49_O6O-32" value="" style="edgeStyle=orthogonalEdgeStyle;rounded=0;orthogonalLoop=1;jettySize=auto;html=1;endArrow=none;endFill=0;exitX=0.5;exitY=0;exitDx=0;exitDy=0;exitPerimeter=0;" parent="1" source="Red1ORgHXicUbS49_O6O-22" target="Red1ORgHXicUbS49_O6O-28" edge="1">
          <mxGeometry relative="1" as="geometry">
            <mxPoint x="1320" y="-2120" as="sourcePoint" />
            <Array as="points">
              <mxPoint x="1237" y="-2077" />
              <mxPoint x="1237" y="-2120" />
            </Array>
          </mxGeometry>
        </mxCell>
        <mxCell id="Red1ORgHXicUbS49_O6O-64" style="edgeStyle=orthogonalEdgeStyle;rounded=0;orthogonalLoop=1;jettySize=auto;html=1;endArrow=none;endFill=0;entryX=1;entryY=0.5;entryDx=0;entryDy=0;exitX=0.5;exitY=0.5;exitDx=0;exitDy=0;exitPerimeter=0;" parent="1" source="Red1ORgHXicUbS49_O6O-22" target="Red1ORgHXicUbS49_O6O-60" edge="1">
          <mxGeometry relative="1" as="geometry">
            <mxPoint x="1235" y="-2047" as="sourcePoint" />
            <mxPoint x="780" y="-1602" as="targetPoint" />
            <Array as="points">
              <mxPoint x="1240" y="-2047" />
              <mxPoint x="1240" y="-1607" />
            </Array>
          </mxGeometry>
        </mxCell>
      </root>
    </mxGraphModel>
  </diagram>
</mxfile>
